<?xml version="1.0" encoding="UTF-8" standalone="no"?>
<svg
   height="216.92mm"
   viewBox="0.0 0.0 402.57 216.92"
   width="402.57mm"
   version="1.1"
   id="svg9"
   sodipodi:docname="let-me-show-you-diamond.svg"
   inkscape:version="1.3.2 (091e20ef0f, 2023-11-25, custom)"
   xml:space="preserve"
   xmlns:inkscape="http://www.inkscape.org/namespaces/inkscape"
   xmlns:sodipodi="http://sodipodi.sourceforge.net/DTD/sodipodi-0.dtd"
   xmlns="http://www.w3.org/2000/svg"
   xmlns:svg="http://www.w3.org/2000/svg"
   xmlns:rdf="http://www.w3.org/1999/02/22-rdf-syntax-ns#"
   xmlns:cc="http://creativecommons.org/ns#"
   xmlns:dc="http://purl.org/dc/elements/1.1/"><defs
     id="defs9" /><sodipodi:namedview
     id="namedview9"
     pagecolor="#ffffff"
     bordercolor="#000000"
     borderopacity="0.25"
     inkscape:showpageshadow="2"
     inkscape:pageopacity="0.0"
     inkscape:pagecheckerboard="0"
     inkscape:deskcolor="#d1d1d1"
     inkscape:document-units="mm"
     inkscape:zoom="1.4139003"
     inkscape:cx="694.17909"
     inkscape:cy="254.61485"
     inkscape:window-width="1918"
     inkscape:window-height="1078"
     inkscape:window-x="1920"
     inkscape:window-y="0"
     inkscape:window-maximized="1"
     inkscape:current-layer="layer3" /><!--
RoundedBox - Box with vertical edges rounded



Default: edge_style = f Finger Joint:
![Finger Joint](static/samples/RoundedBox-2.jpg)

Alternative: edge_style = h Edge (parallel Finger Joint Holes):
![Finger Joint Holes](static/samples/RoundedBox-3.jpg)

With lid:



Created with Boxes.py (https://boxes.hackerspace-bamberg.de/)
Creation date: 2024-06-25 18:40:17
Command line (remove spaces between dashes): boxes RoundedBox - -sh=69.0 - -x=112.0 - -y=112.0 - -top=lid - -thickness=5.5 - -burn=0.07
Url: http://boxes.hackerspace-bamberg.de/boxes.py/RoundedBox?FingerJoint_angle=90.0&FingerJoint_style=rectangular&FingerJoint_surroundingspaces=2.0&FingerJoint_bottom_lip=0.0&FingerJoint_edge_width=1.0&FingerJoint_extra_length=0.0&FingerJoint_finger=2.0&FingerJoint_play=0.0&FingerJoint_space=2.0&FingerJoint_width=1.0&DoveTail_angle=50&DoveTail_depth=1.5&DoveTail_radius=0.2&DoveTail_size=3&Flex_stretch=1.05&Flex_connection=1.0&Flex_distance=0.5&Flex_width=5.0&sh=69.0&x=112.0&y=112.0&outside=0&outside=1&radius=15&wallpieces=1&edge_style=f&top=lid&thickness=5.5&format=svg&tabs=0.0&qr_code=0&debug=0&labels=0&labels=1&reference=100.0&inner_corners=loop&burn=0.07&language=en&render=2
Url short: http://boxes.hackerspace-bamberg.de/boxes.py/RoundedBox?sh=69.0&x=112.0&y=112.0&top=lid&thickness=5.5&burn=0.07
SettingsUrl: http://boxes.hackerspace-bamberg.de/boxes.py/RoundedBox?FingerJoint_angle=90.0&FingerJoint_style=rectangular&FingerJoint_surroundingspaces=2.0&FingerJoint_bottom_lip=0.0&FingerJoint_edge_width=1.0&FingerJoint_extra_length=0.0&FingerJoint_finger=2.0&FingerJoint_play=0.0&FingerJoint_space=2.0&FingerJoint_width=1.0&DoveTail_angle=50&DoveTail_depth=1.5&DoveTail_radius=0.2&DoveTail_size=3&Flex_stretch=1.05&Flex_connection=1.0&Flex_distance=0.5&Flex_width=5.0&sh=69.0&x=112.0&y=112.0&outside=0&outside=1&radius=15&wallpieces=1&edge_style=f&top=lid&thickness=5.5&format=svg&tabs=0.0&qr_code=0&debug=0&labels=0&labels=1&reference=100.0&inner_corners=loop&burn=0.07&language=en&render=2
SettingsUrl short: http://boxes.hackerspace-bamberg.de/boxes.py/RoundedBox?sh=69.0&x=112.0&y=112.0&top=lid&thickness=5.5&burn=0.07
--><title
     id="title1">RoundedBox</title><metadata
     id="metadata1"><rdf:RDF><cc:Work><dc:title>RoundedBox</dc:title><dc:date>2024-06-25 18:40:17</dc:date><dc:source>http://boxes.hackerspace-bamberg.de/boxes.py/RoundedBox?FingerJoint_angle=90.0&amp;FingerJoint_style=rectangular&amp;FingerJoint_surroundingspaces=2.0&amp;FingerJoint_bottom_lip=0.0&amp;FingerJoint_edge_width=1.0&amp;FingerJoint_extra_length=0.0&amp;FingerJoint_finger=2.0&amp;FingerJoint_play=0.0&amp;FingerJoint_space=2.0&amp;FingerJoint_width=1.0&amp;DoveTail_angle=50&amp;DoveTail_depth=1.5&amp;DoveTail_radius=0.2&amp;DoveTail_size=3&amp;Flex_stretch=1.05&amp;Flex_connection=1.0&amp;Flex_distance=0.5&amp;Flex_width=5.0&amp;sh=69.0&amp;x=112.0&amp;y=112.0&amp;outside=0&amp;outside=1&amp;radius=15&amp;wallpieces=1&amp;edge_style=f&amp;top=lid&amp;thickness=5.5&amp;format=svg&amp;tabs=0.0&amp;qr_code=0&amp;debug=0&amp;labels=0&amp;labels=1&amp;reference=100.0&amp;inner_corners=loop&amp;burn=0.07&amp;language=en&amp;render=2</dc:source><dc:source>http://boxes.hackerspace-bamberg.de/boxes.py/RoundedBox?sh=69.0&amp;x=112.0&amp;y=112.0&amp;top=lid&amp;thickness=5.5&amp;burn=0.07</dc:source><dc:description>Box with vertical edges rounded


Default: edge_style = f Finger Joint:
![Finger Joint](static/samples/RoundedBox-2.jpg)

Alternative: edge_style = h Edge (parallel Finger Joint Holes):
![Finger Joint Holes](static/samples/RoundedBox-3.jpg)

With lid:


Created with Boxes.py (https://boxes.hackerspace-bamberg.de/)
Command line: boxes RoundedBox --FingerJoint_angle=90.0 --FingerJoint_style=rectangular --FingerJoint_surroundingspaces=2.0 --FingerJoint_bottom_lip=0.0 --FingerJoint_edge_width=1.0 --FingerJoint_extra_length=0.0 --FingerJoint_finger=2.0 --FingerJoint_play=0.0 --FingerJoint_space=2.0 --FingerJoint_width=1.0 --DoveTail_angle=50 --DoveTail_depth=1.5 --DoveTail_radius=0.2 --DoveTail_size=3 --Flex_stretch=1.05 --Flex_connection=1.0 --Flex_distance=0.5 --Flex_width=5.0 --sh=69.0 --x=112.0 --y=112.0 --outside=0 --outside=1 --radius=15 --wallpieces=1 --edge_style=f --top=lid --thickness=5.5 --format=svg --tabs=0.0 --qr_code=0 --debug=0 --labels=0 --labels=1 --reference=100.0 --inner_corners=loop --burn=0.07
Command line short: boxes RoundedBox --sh=69.0 --x=112.0 --y=112.0 --top=lid --thickness=5.5 --burn=0.07
Url: http://boxes.hackerspace-bamberg.de/boxes.py/RoundedBox?FingerJoint_angle=90.0&amp;FingerJoint_style=rectangular&amp;FingerJoint_surroundingspaces=2.0&amp;FingerJoint_bottom_lip=0.0&amp;FingerJoint_edge_width=1.0&amp;FingerJoint_extra_length=0.0&amp;FingerJoint_finger=2.0&amp;FingerJoint_play=0.0&amp;FingerJoint_space=2.0&amp;FingerJoint_width=1.0&amp;DoveTail_angle=50&amp;DoveTail_depth=1.5&amp;DoveTail_radius=0.2&amp;DoveTail_size=3&amp;Flex_stretch=1.05&amp;Flex_connection=1.0&amp;Flex_distance=0.5&amp;Flex_width=5.0&amp;sh=69.0&amp;x=112.0&amp;y=112.0&amp;outside=0&amp;outside=1&amp;radius=15&amp;wallpieces=1&amp;edge_style=f&amp;top=lid&amp;thickness=5.5&amp;format=svg&amp;tabs=0.0&amp;qr_code=0&amp;debug=0&amp;labels=0&amp;labels=1&amp;reference=100.0&amp;inner_corners=loop&amp;burn=0.07&amp;language=en&amp;render=2
Url short: http://boxes.hackerspace-bamberg.de/boxes.py/RoundedBox?sh=69.0&amp;x=112.0&amp;y=112.0&amp;top=lid&amp;thickness=5.5&amp;burn=0.07
SettingsUrl: http://boxes.hackerspace-bamberg.de/boxes.py/RoundedBox?FingerJoint_angle=90.0&amp;FingerJoint_style=rectangular&amp;FingerJoint_surroundingspaces=2.0&amp;FingerJoint_bottom_lip=0.0&amp;FingerJoint_edge_width=1.0&amp;FingerJoint_extra_length=0.0&amp;FingerJoint_finger=2.0&amp;FingerJoint_play=0.0&amp;FingerJoint_space=2.0&amp;FingerJoint_width=1.0&amp;DoveTail_angle=50&amp;DoveTail_depth=1.5&amp;DoveTail_radius=0.2&amp;DoveTail_size=3&amp;Flex_stretch=1.05&amp;Flex_connection=1.0&amp;Flex_distance=0.5&amp;Flex_width=5.0&amp;sh=69.0&amp;x=112.0&amp;y=112.0&amp;outside=0&amp;outside=1&amp;radius=15&amp;wallpieces=1&amp;edge_style=f&amp;top=lid&amp;thickness=5.5&amp;format=svg&amp;tabs=0.0&amp;qr_code=0&amp;debug=0&amp;labels=0&amp;labels=1&amp;reference=100.0&amp;inner_corners=loop&amp;burn=0.07&amp;language=en&amp;render=2
SettingsUrl short: http://boxes.hackerspace-bamberg.de/boxes.py/RoundedBox?sh=69.0&amp;x=112.0&amp;y=112.0&amp;top=lid&amp;thickness=5.5&amp;burn=0.07
</dc:description></cc:Work></rdf:RDF></metadata><g
     inkscape:groupmode="layer"
     id="layer4"
     inkscape:label="image"
     style="display:inline" /><g
     inkscape:groupmode="layer"
     id="layer3"
     inkscape:label="text"
     style="display:inline"><g
       id="g45"
       transform="translate(-2.5753238,80.651998)"><path
         style="fill:#000080;stroke-width:0.0277391"
         d="m 103.16783,77.933475 0.79756,-32.309824 0.87196,-0.14558 2.26875,32.753903 z"
         id="path14" /><g
         id="g15"
         transform="translate(1.0583333)"><path
           style="fill:#000080;stroke-width:0.0277391"
           d="M 71.398885,79.082525 72.15169,46.461271 73.023658,46.315691 75.2924,79.069594 Z"
           id="path13"
           sodipodi:nodetypes="ccccc" /><path
           style="fill:#000080;stroke-width:0.0277391"
           d="M 73.704899,9.8031683 72.952094,42.424423 72.080126,42.570003 69.811384,9.8161003 Z"
           id="path15"
           sodipodi:nodetypes="ccccc" /></g><g
         id="g18"
         transform="translate(1.0583333)"><path
           style="fill:#000080;stroke-width:0.156951"
           d="m 77.308224,74.684004 c -0.249492,-0.04828 -0.370088,-0.208776 -0.426188,-0.567194 -0.04303,-0.27492 -0.477546,-6.679809 -0.965585,-14.233085 -1.037453,-16.056407 -1.042963,-13.235214 0.06726,-34.437783 0.445681,-8.511449 0.791982,-13.975036 0.887705,-14.005344 0.508635,-0.161045 0.558914,0.28029 1.738303,15.258247 1.053814,13.383198 1.175165,15.336175 1.091626,17.568235 -0.136258,3.640674 -1.48873,29.071208 -1.588042,29.859968 -0.0482,0.382854 -0.163474,0.657935 -0.270558,0.645668 -0.102615,-0.01176 -0.34315,-0.05168 -0.534521,-0.08871 z"
           id="path12" /><g
           id="g17"><path
             style="fill:#000080;stroke-width:0.0277391"
             d="M 71.398885,79.082525 72.15169,46.461271 73.023658,46.315691 75.2924,79.069594 Z"
             id="path16"
             sodipodi:nodetypes="ccccc" /><path
             style="fill:#000080;stroke-width:0.0277391"
             d="M 73.704899,9.8031683 72.952094,42.424423 72.080126,42.570003 69.811384,9.8161003 Z"
             id="path17"
             sodipodi:nodetypes="ccccc" /></g></g><g
         id="g21"
         transform="translate(11.112501)"><path
           style="fill:#000080;stroke-width:0.156951"
           d="m 77.308224,74.684004 c -0.249492,-0.04828 -0.370088,-0.208776 -0.426188,-0.567194 -0.04303,-0.27492 -0.477546,-6.679809 -0.965585,-14.233085 -1.037453,-16.056407 -1.042963,-13.235214 0.06726,-34.437783 0.445681,-8.511449 0.791982,-13.975036 0.887705,-14.005344 0.508635,-0.161045 0.558914,0.28029 1.738303,15.258247 1.053814,13.383198 1.175165,15.336175 1.091626,17.568235 -0.136258,3.640674 -1.48873,29.071208 -1.588042,29.859968 -0.0482,0.382854 -0.163474,0.657935 -0.270558,0.645668 -0.102615,-0.01176 -0.34315,-0.05168 -0.534521,-0.08871 z"
           id="path18" /><g
           id="g20"><path
             style="fill:#000080;stroke-width:0.0277391"
             d="M 71.398885,79.082525 72.15169,46.461271 73.023658,46.315691 75.2924,79.069594 Z"
             id="path19"
             sodipodi:nodetypes="ccccc" /><path
             style="fill:#000080;stroke-width:0.0277391"
             d="M 73.704899,9.8031683 72.952094,42.424423 72.080126,42.570003 69.811384,9.8161003 Z"
             id="path20"
             sodipodi:nodetypes="ccccc" /></g></g><g
         id="g24"
         transform="translate(21.166674)"><path
           style="fill:#000080;stroke-width:0.156951"
           d="m 77.308224,74.684004 c -0.249492,-0.04828 -0.370088,-0.208776 -0.426188,-0.567194 -0.04303,-0.27492 -0.477546,-6.679809 -0.965585,-14.233085 -1.037453,-16.056407 -1.042963,-13.235214 0.06726,-34.437783 0.445681,-8.511449 0.791982,-13.975036 0.887705,-14.005344 0.508635,-0.161045 0.558914,0.28029 1.738303,15.258247 1.053814,13.383198 1.175165,15.336175 1.091626,17.568235 -0.136258,3.640674 -1.48873,29.071208 -1.588042,29.859968 -0.0482,0.382854 -0.163474,0.657935 -0.270558,0.645668 -0.102615,-0.01176 -0.34315,-0.05168 -0.534521,-0.08871 z"
           id="path21" /><g
           id="g23"><path
             style="fill:#000080;stroke-width:0.0277391"
             d="M 71.398885,79.082525 72.15169,46.461271 73.023658,46.315691 75.2924,79.069594 Z"
             id="path22"
             sodipodi:nodetypes="ccccc" /><path
             style="fill:#000080;stroke-width:0.0277391"
             d="M 73.704899,9.8031683 72.952094,42.424423 72.080126,42.570003 69.811384,9.8161003 Z"
             id="path23"
             sodipodi:nodetypes="ccccc" /></g></g><g
         id="g27"
         transform="translate(31.220847)"><path
           style="fill:#000080;stroke-width:0.156951"
           d="m 77.308224,74.684004 c -0.249492,-0.04828 -0.370088,-0.208776 -0.426188,-0.567194 -0.04303,-0.27492 -0.477546,-6.679809 -0.965585,-14.233085 -1.037453,-16.056407 -1.042963,-13.235214 0.06726,-34.437783 0.445681,-8.511449 0.791982,-13.975036 0.887705,-14.005344 0.508635,-0.161045 0.558914,0.28029 1.738303,15.258247 1.053814,13.383198 1.175165,15.336175 1.091626,17.568235 -0.136258,3.640674 -1.48873,29.071208 -1.588042,29.859968 -0.0482,0.382854 -0.163474,0.657935 -0.270558,0.645668 -0.102615,-0.01176 -0.34315,-0.05168 -0.534521,-0.08871 z"
           id="path24" /><g
           id="g26"><path
             style="fill:#000080;stroke-width:0.0277391"
             d="M 71.398885,79.082525 72.15169,46.461271 73.023658,46.315691 75.2924,79.069594 Z"
             id="path25"
             sodipodi:nodetypes="ccccc" /><path
             style="fill:#000080;stroke-width:0.0277391"
             d="M 73.704899,9.8031683 72.952094,42.424423 72.080126,42.570003 69.811384,9.8161003 Z"
             id="path26"
             sodipodi:nodetypes="ccccc" /></g></g><g
         id="g30"
         transform="translate(41.27502)"><path
           style="fill:#000080;stroke-width:0.156951"
           d="m 77.308224,74.684004 c -0.249492,-0.04828 -0.370088,-0.208776 -0.426188,-0.567194 -0.04303,-0.27492 -0.477546,-6.679809 -0.965585,-14.233085 -1.037453,-16.056407 -1.042963,-13.235214 0.06726,-34.437783 0.445681,-8.511449 0.791982,-13.975036 0.887705,-14.005344 0.508635,-0.161045 0.558914,0.28029 1.738303,15.258247 1.053814,13.383198 1.175165,15.336175 1.091626,17.568235 -0.136258,3.640674 -1.48873,29.071208 -1.588042,29.859968 -0.0482,0.382854 -0.163474,0.657935 -0.270558,0.645668 -0.102615,-0.01176 -0.34315,-0.05168 -0.534521,-0.08871 z"
           id="path27" /><g
           id="g29"><path
             style="fill:#000080;stroke-width:0.0277391"
             d="M 71.398885,79.082525 72.15169,46.461271 73.023658,46.315691 75.2924,79.069594 Z"
             id="path28"
             sodipodi:nodetypes="ccccc" /><path
             style="fill:#000080;stroke-width:0.0277391"
             d="M 73.704899,9.8031683 72.952094,42.424423 72.080126,42.570003 69.811384,9.8161003 Z"
             id="path29"
             sodipodi:nodetypes="ccccc" /></g></g><g
         id="g33"
         transform="translate(51.329193)"><path
           style="fill:#000080;stroke-width:0.156951"
           d="m 77.308224,74.684004 c -0.249492,-0.04828 -0.370088,-0.208776 -0.426188,-0.567194 -0.04303,-0.27492 -0.477546,-6.679809 -0.965585,-14.233085 -1.037453,-16.056407 -1.042963,-13.235214 0.06726,-34.437783 0.445681,-8.511449 0.791982,-13.975036 0.887705,-14.005344 0.508635,-0.161045 0.558914,0.28029 1.738303,15.258247 1.053814,13.383198 1.175165,15.336175 1.091626,17.568235 -0.136258,3.640674 -1.48873,29.071208 -1.588042,29.859968 -0.0482,0.382854 -0.163474,0.657935 -0.270558,0.645668 -0.102615,-0.01176 -0.34315,-0.05168 -0.534521,-0.08871 z"
           id="path30" /><g
           id="g32"><path
             style="fill:#000080;stroke-width:0.0277391"
             d="M 71.398885,79.082525 72.15169,46.461271 73.023658,46.315691 75.2924,79.069594 Z"
             id="path31"
             sodipodi:nodetypes="ccccc" /><path
             style="fill:#000080;stroke-width:0.0277391"
             d="M 73.704899,9.8031683 72.952094,42.424423 72.080126,42.570003 69.811384,9.8161003 Z"
             id="path32"
             sodipodi:nodetypes="ccccc" /></g></g><path
         style="fill:#000080;stroke-width:0.156951"
         d="m 138.16243,74.684004 c -0.24949,-0.04828 -0.37009,-0.208776 -0.42619,-0.567194 -0.043,-0.27492 -0.47755,-6.679809 -0.96558,-14.233085 -1.03746,-16.056407 -1.04297,-13.235214 0.0673,-34.437783 0.44568,-8.511449 0.79198,-13.975036 0.8877,-14.005344 0.50864,-0.161045 0.55891,0.28029 1.7383,15.258247 1.05382,13.383198 1.17517,15.336175 1.09163,17.568235 -0.13626,3.640674 -1.48873,29.071208 -1.58804,29.859968 -0.0482,0.382854 -0.16348,0.657935 -0.27056,0.645668 -0.10261,-0.01176 -0.34315,-0.05168 -0.53452,-0.08871 z"
         id="path33" /><g
         id="g35"
         transform="translate(60.854199)"><path
           style="fill:#000080;stroke-width:0.0277391"
           d="M 71.398885,79.082525 72.15169,46.461271 73.023658,46.315691 75.2924,79.069594 Z"
           id="path34"
           sodipodi:nodetypes="ccccc" /><path
           style="fill:#000080;stroke-width:0.0277391"
           d="M 73.704899,9.8031683 72.952094,42.424423 72.080126,42.570003 69.811384,9.8161003 Z"
           id="path35"
           sodipodi:nodetypes="ccccc" /></g><path
         style="fill:#000080;stroke-width:0.156951"
         d="m 69.370504,74.684004 c -0.249487,-0.04828 -0.370087,-0.208776 -0.426187,-0.567194 -0.043,-0.27492 -0.477547,-6.679809 -0.965574,-14.233085 -1.037454,-16.056407 -1.042964,-13.235214 0.0673,-34.437783 0.445677,-8.511449 0.791974,-13.975036 0.887694,-14.005344 0.508637,-0.161045 0.558907,0.28029 1.738291,15.258247 1.053814,13.383198 1.175164,15.336175 1.091624,17.568235 -0.13626,3.640674 -1.488721,29.071208 -1.588031,29.859968 -0.0482,0.382854 -0.16348,0.657935 -0.27056,0.645668 -0.102607,-0.01176 -0.343147,-0.05168 -0.534517,-0.08871 z"
         id="path36" /><g
         id="g41"><path
           style="fill:#000080;stroke-width:0.0277391"
           d="m 65.145194,79.038344 -0.17298,-32.641837 0.49102,-0.199859 2.26874,32.753903 z"
           id="path37"
           sodipodi:nodetypes="ccccc" /><g
           id="g40"
           transform="translate(-100.61401,-0.65667416)"><path
             style="fill:#000080;stroke-width:0.264583"
             d="m 165.47448,43.26514 c 0,37.618931 0.14423,37.498675 0.14423,37.498675"
             id="path39" /><path
             style="fill:#000080;stroke-width:0.0277391"
             d="m 165.55581,10.493134 -0.17298,32.641837 0.49102,0.199859 2.26874,-32.753903 z"
             id="path40"
             sodipodi:nodetypes="ccccc" /></g></g><g
         id="g44"
         transform="matrix(-1,0,0,1,207.11376,0)"><path
           style="fill:#000080;stroke-width:0.0277391"
           d="m 65.145194,79.038344 -0.17298,-32.641837 0.49102,-0.199859 2.26874,32.753903 z"
           id="path41"
           sodipodi:nodetypes="ccccc" /><g
           id="g43"
           transform="translate(-100.61401,-0.65667416)"><path
             style="fill:#000080;stroke-width:0.264583"
             d="m 165.47448,43.26514 c 0,37.618931 0.14423,37.498675 0.14423,37.498675"
             id="path42" /><path
             style="fill:#000080;stroke-width:0.0277391"
             d="m 165.55581,10.493134 -0.17298,32.641837 0.49102,0.199859 2.26874,-32.753903 z"
             id="path43"
             sodipodi:nodetypes="ccccc" /></g></g></g><g
       id="g141"
       transform="translate(87.971443,77.780012)"><path
         style="fill:#000080;stroke-width:0.0277391"
         d="m 103.16783,77.933475 0.79756,-32.309824 0.87196,-0.14558 2.26875,32.753903 z"
         id="path109" /><g
         id="g111"
         transform="translate(1.0583333)"><path
           style="fill:#000080;stroke-width:0.0277391"
           d="M 71.398885,79.082525 72.15169,46.461271 73.023658,46.315691 75.2924,79.069594 Z"
           id="path110"
           sodipodi:nodetypes="ccccc" /><path
           style="fill:#000080;stroke-width:0.0277391"
           d="M 73.704899,9.8031683 72.952094,42.424423 72.080126,42.570003 69.811384,9.8161003 Z"
           id="path111"
           sodipodi:nodetypes="ccccc" /></g><g
         id="g115"
         transform="translate(1.0583333)"><path
           style="fill:#000080;stroke-width:0.156951"
           d="m 77.308224,74.684004 c -0.249492,-0.04828 -0.370088,-0.208776 -0.426188,-0.567194 -0.04303,-0.27492 -0.477546,-6.679809 -0.965585,-14.233085 -1.037453,-16.056407 -1.042963,-13.235214 0.06726,-34.437783 0.445681,-8.511449 0.791982,-13.975036 0.887705,-14.005344 0.508635,-0.161045 0.558914,0.28029 1.738303,15.258247 1.053814,13.383198 1.175165,15.336175 1.091626,17.568235 -0.136258,3.640674 -1.48873,29.071208 -1.588042,29.859968 -0.0482,0.382854 -0.163474,0.657935 -0.270558,0.645668 -0.102615,-0.01176 -0.34315,-0.05168 -0.534521,-0.08871 z"
           id="path112" /><g
           id="g114"><path
             style="fill:#000080;stroke-width:0.0277391"
             d="M 71.398885,79.082525 72.15169,46.461271 73.023658,46.315691 75.2924,79.069594 Z"
             id="path113"
             sodipodi:nodetypes="ccccc" /><path
             style="fill:#000080;stroke-width:0.0277391"
             d="M 73.704899,9.8031683 72.952094,42.424423 72.080126,42.570003 69.811384,9.8161003 Z"
             id="path114"
             sodipodi:nodetypes="ccccc" /></g></g><g
         id="g118"
         transform="translate(11.112501)"><path
           style="fill:#000080;stroke-width:0.156951"
           d="m 77.308224,74.684004 c -0.249492,-0.04828 -0.370088,-0.208776 -0.426188,-0.567194 -0.04303,-0.27492 -0.477546,-6.679809 -0.965585,-14.233085 -1.037453,-16.056407 -1.042963,-13.235214 0.06726,-34.437783 0.445681,-8.511449 0.791982,-13.975036 0.887705,-14.005344 0.508635,-0.161045 0.558914,0.28029 1.738303,15.258247 1.053814,13.383198 1.175165,15.336175 1.091626,17.568235 -0.136258,3.640674 -1.48873,29.071208 -1.588042,29.859968 -0.0482,0.382854 -0.163474,0.657935 -0.270558,0.645668 -0.102615,-0.01176 -0.34315,-0.05168 -0.534521,-0.08871 z"
           id="path115" /><g
           id="g117"><path
             style="fill:#000080;stroke-width:0.0277391"
             d="M 71.398885,79.082525 72.15169,46.461271 73.023658,46.315691 75.2924,79.069594 Z"
             id="path116"
             sodipodi:nodetypes="ccccc" /><path
             style="fill:#000080;stroke-width:0.0277391"
             d="M 73.704899,9.8031683 72.952094,42.424423 72.080126,42.570003 69.811384,9.8161003 Z"
             id="path117"
             sodipodi:nodetypes="ccccc" /></g></g><g
         id="g121"
         transform="translate(21.166674)"><path
           style="fill:#000080;stroke-width:0.156951"
           d="m 77.308224,74.684004 c -0.249492,-0.04828 -0.370088,-0.208776 -0.426188,-0.567194 -0.04303,-0.27492 -0.477546,-6.679809 -0.965585,-14.233085 -1.037453,-16.056407 -1.042963,-13.235214 0.06726,-34.437783 0.445681,-8.511449 0.791982,-13.975036 0.887705,-14.005344 0.508635,-0.161045 0.558914,0.28029 1.738303,15.258247 1.053814,13.383198 1.175165,15.336175 1.091626,17.568235 -0.136258,3.640674 -1.48873,29.071208 -1.588042,29.859968 -0.0482,0.382854 -0.163474,0.657935 -0.270558,0.645668 -0.102615,-0.01176 -0.34315,-0.05168 -0.534521,-0.08871 z"
           id="path118" /><g
           id="g120"><path
             style="fill:#000080;stroke-width:0.0277391"
             d="M 71.398885,79.082525 72.15169,46.461271 73.023658,46.315691 75.2924,79.069594 Z"
             id="path119"
             sodipodi:nodetypes="ccccc" /><path
             style="fill:#000080;stroke-width:0.0277391"
             d="M 73.704899,9.8031683 72.952094,42.424423 72.080126,42.570003 69.811384,9.8161003 Z"
             id="path120"
             sodipodi:nodetypes="ccccc" /></g></g><g
         id="g124"
         transform="translate(31.220847)"><path
           style="fill:#000080;stroke-width:0.156951"
           d="m 77.308224,74.684004 c -0.249492,-0.04828 -0.370088,-0.208776 -0.426188,-0.567194 -0.04303,-0.27492 -0.477546,-6.679809 -0.965585,-14.233085 -1.037453,-16.056407 -1.042963,-13.235214 0.06726,-34.437783 0.445681,-8.511449 0.791982,-13.975036 0.887705,-14.005344 0.508635,-0.161045 0.558914,0.28029 1.738303,15.258247 1.053814,13.383198 1.175165,15.336175 1.091626,17.568235 -0.136258,3.640674 -1.48873,29.071208 -1.588042,29.859968 -0.0482,0.382854 -0.163474,0.657935 -0.270558,0.645668 -0.102615,-0.01176 -0.34315,-0.05168 -0.534521,-0.08871 z"
           id="path121" /><g
           id="g123"><path
             style="fill:#000080;stroke-width:0.0277391"
             d="M 71.398885,79.082525 72.15169,46.461271 73.023658,46.315691 75.2924,79.069594 Z"
             id="path122"
             sodipodi:nodetypes="ccccc" /><path
             style="fill:#000080;stroke-width:0.0277391"
             d="M 73.704899,9.8031683 72.952094,42.424423 72.080126,42.570003 69.811384,9.8161003 Z"
             id="path123"
             sodipodi:nodetypes="ccccc" /></g></g><g
         id="g127"
         transform="translate(41.27502)"><path
           style="fill:#000080;stroke-width:0.156951"
           d="m 77.308224,74.684004 c -0.249492,-0.04828 -0.370088,-0.208776 -0.426188,-0.567194 -0.04303,-0.27492 -0.477546,-6.679809 -0.965585,-14.233085 -1.037453,-16.056407 -1.042963,-13.235214 0.06726,-34.437783 0.445681,-8.511449 0.791982,-13.975036 0.887705,-14.005344 0.508635,-0.161045 0.558914,0.28029 1.738303,15.258247 1.053814,13.383198 1.175165,15.336175 1.091626,17.568235 -0.136258,3.640674 -1.48873,29.071208 -1.588042,29.859968 -0.0482,0.382854 -0.163474,0.657935 -0.270558,0.645668 -0.102615,-0.01176 -0.34315,-0.05168 -0.534521,-0.08871 z"
           id="path124" /><g
           id="g126"><path
             style="fill:#000080;stroke-width:0.0277391"
             d="M 71.398885,79.082525 72.15169,46.461271 73.023658,46.315691 75.2924,79.069594 Z"
             id="path125"
             sodipodi:nodetypes="ccccc" /><path
             style="fill:#000080;stroke-width:0.0277391"
             d="M 73.704899,9.8031683 72.952094,42.424423 72.080126,42.570003 69.811384,9.8161003 Z"
             id="path126"
             sodipodi:nodetypes="ccccc" /></g></g><g
         id="g130"
         transform="translate(51.329193)"><path
           style="fill:#000080;stroke-width:0.156951"
           d="m 77.308224,74.684004 c -0.249492,-0.04828 -0.370088,-0.208776 -0.426188,-0.567194 -0.04303,-0.27492 -0.477546,-6.679809 -0.965585,-14.233085 -1.037453,-16.056407 -1.042963,-13.235214 0.06726,-34.437783 0.445681,-8.511449 0.791982,-13.975036 0.887705,-14.005344 0.508635,-0.161045 0.558914,0.28029 1.738303,15.258247 1.053814,13.383198 1.175165,15.336175 1.091626,17.568235 -0.136258,3.640674 -1.48873,29.071208 -1.588042,29.859968 -0.0482,0.382854 -0.163474,0.657935 -0.270558,0.645668 -0.102615,-0.01176 -0.34315,-0.05168 -0.534521,-0.08871 z"
           id="path127" /><g
           id="g129"><path
             style="fill:#000080;stroke-width:0.0277391"
             d="M 71.398885,79.082525 72.15169,46.461271 73.023658,46.315691 75.2924,79.069594 Z"
             id="path128"
             sodipodi:nodetypes="ccccc" /><path
             style="fill:#000080;stroke-width:0.0277391"
             d="M 73.704899,9.8031683 72.952094,42.424423 72.080126,42.570003 69.811384,9.8161003 Z"
             id="path129"
             sodipodi:nodetypes="ccccc" /></g></g><path
         style="fill:#000080;stroke-width:0.156951"
         d="m 138.16243,74.684004 c -0.24949,-0.04828 -0.37009,-0.208776 -0.42619,-0.567194 -0.043,-0.27492 -0.47755,-6.679809 -0.96558,-14.233085 -1.03746,-16.056407 -1.04297,-13.235214 0.0673,-34.437783 0.44568,-8.511449 0.79198,-13.975036 0.8877,-14.005344 0.50864,-0.161045 0.55891,0.28029 1.7383,15.258247 1.05382,13.383198 1.17517,15.336175 1.09163,17.568235 -0.13626,3.640674 -1.48873,29.071208 -1.58804,29.859968 -0.0482,0.382854 -0.16348,0.657935 -0.27056,0.645668 -0.10261,-0.01176 -0.34315,-0.05168 -0.53452,-0.08871 z"
         id="path130" /><g
         id="g132"
         transform="translate(60.854199)"><path
           style="fill:#000080;stroke-width:0.0277391"
           d="M 71.398885,79.082525 72.15169,46.461271 73.023658,46.315691 75.2924,79.069594 Z"
           id="path131"
           sodipodi:nodetypes="ccccc" /><path
           style="fill:#000080;stroke-width:0.0277391"
           d="M 73.704899,9.8031683 72.952094,42.424423 72.080126,42.570003 69.811384,9.8161003 Z"
           id="path132"
           sodipodi:nodetypes="ccccc" /></g><path
         style="fill:#000080;stroke-width:0.156951"
         d="m 69.370504,74.684004 c -0.249487,-0.04828 -0.370087,-0.208776 -0.426187,-0.567194 -0.043,-0.27492 -0.477547,-6.679809 -0.965574,-14.233085 -1.037454,-16.056407 -1.042964,-13.235214 0.0673,-34.437783 0.445677,-8.511449 0.791974,-13.975036 0.887694,-14.005344 0.508637,-0.161045 0.558907,0.28029 1.738291,15.258247 1.053814,13.383198 1.175164,15.336175 1.091624,17.568235 -0.13626,3.640674 -1.488721,29.071208 -1.588031,29.859968 -0.0482,0.382854 -0.16348,0.657935 -0.27056,0.645668 -0.102607,-0.01176 -0.343147,-0.05168 -0.534517,-0.08871 z"
         id="path133" /><g
         id="g137"><path
           style="fill:#000080;stroke-width:0.0277391"
           d="m 65.145194,79.038344 -0.17298,-32.641837 0.49102,-0.199859 2.26874,32.753903 z"
           id="path134"
           sodipodi:nodetypes="ccccc" /><g
           id="g136"
           transform="translate(-100.61401,-0.65667416)"><path
             style="fill:#000080;stroke-width:0.264583"
             d="m 165.47448,43.26514 c 0,37.618931 0.14423,37.498675 0.14423,37.498675"
             id="path135" /><path
             style="fill:#000080;stroke-width:0.0277391"
             d="m 165.55581,10.493134 -0.17298,32.641837 0.49102,0.199859 2.26874,-32.753903 z"
             id="path136"
             sodipodi:nodetypes="ccccc" /></g></g><g
         id="g140"
         transform="matrix(-1,0,0,1,207.11376,0)"><path
           style="fill:#000080;stroke-width:0.0277391"
           d="m 65.145194,79.038344 -0.17298,-32.641837 0.49102,-0.199859 2.26874,32.753903 z"
           id="path137"
           sodipodi:nodetypes="ccccc" /><g
           id="g139"
           transform="translate(-100.61401,-0.65667416)"><path
             style="fill:#000080;stroke-width:0.264583"
             d="m 165.47448,43.26514 c 0,37.618931 0.14423,37.498675 0.14423,37.498675"
             id="path138" /><path
             style="fill:#000080;stroke-width:0.0277391"
             d="m 165.55581,10.493134 -0.17298,32.641837 0.49102,0.199859 2.26874,-32.753903 z"
             id="path139"
             sodipodi:nodetypes="ccccc" /></g></g></g><g
       id="g173"
       transform="translate(174.36667,79.628162)"><path
         style="fill:#000080;stroke-width:0.0277391"
         d="m 103.16783,77.933475 0.79756,-32.309824 0.87196,-0.14558 2.26875,32.753903 z"
         id="path141" /><g
         id="g143"
         transform="translate(1.0583333)"><path
           style="fill:#000080;stroke-width:0.0277391"
           d="M 71.398885,79.082525 72.15169,46.461271 73.023658,46.315691 75.2924,79.069594 Z"
           id="path142"
           sodipodi:nodetypes="ccccc" /><path
           style="fill:#000080;stroke-width:0.0277391"
           d="M 73.704899,9.8031683 72.952094,42.424423 72.080126,42.570003 69.811384,9.8161003 Z"
           id="path143"
           sodipodi:nodetypes="ccccc" /></g><g
         id="g147"
         transform="translate(1.0583333)"><path
           style="fill:#000080;stroke-width:0.156951"
           d="m 77.308224,74.684004 c -0.249492,-0.04828 -0.370088,-0.208776 -0.426188,-0.567194 -0.04303,-0.27492 -0.477546,-6.679809 -0.965585,-14.233085 -1.037453,-16.056407 -1.042963,-13.235214 0.06726,-34.437783 0.445681,-8.511449 0.791982,-13.975036 0.887705,-14.005344 0.508635,-0.161045 0.558914,0.28029 1.738303,15.258247 1.053814,13.383198 1.175165,15.336175 1.091626,17.568235 -0.136258,3.640674 -1.48873,29.071208 -1.588042,29.859968 -0.0482,0.382854 -0.163474,0.657935 -0.270558,0.645668 -0.102615,-0.01176 -0.34315,-0.05168 -0.534521,-0.08871 z"
           id="path144" /><g
           id="g146"><path
             style="fill:#000080;stroke-width:0.0277391"
             d="M 71.398885,79.082525 72.15169,46.461271 73.023658,46.315691 75.2924,79.069594 Z"
             id="path145"
             sodipodi:nodetypes="ccccc" /><path
             style="fill:#000080;stroke-width:0.0277391"
             d="M 73.704899,9.8031683 72.952094,42.424423 72.080126,42.570003 69.811384,9.8161003 Z"
             id="path146"
             sodipodi:nodetypes="ccccc" /></g></g><g
         id="g150"
         transform="translate(11.112501)"><path
           style="fill:#000080;stroke-width:0.156951"
           d="m 77.308224,74.684004 c -0.249492,-0.04828 -0.370088,-0.208776 -0.426188,-0.567194 -0.04303,-0.27492 -0.477546,-6.679809 -0.965585,-14.233085 -1.037453,-16.056407 -1.042963,-13.235214 0.06726,-34.437783 0.445681,-8.511449 0.791982,-13.975036 0.887705,-14.005344 0.508635,-0.161045 0.558914,0.28029 1.738303,15.258247 1.053814,13.383198 1.175165,15.336175 1.091626,17.568235 -0.136258,3.640674 -1.48873,29.071208 -1.588042,29.859968 -0.0482,0.382854 -0.163474,0.657935 -0.270558,0.645668 -0.102615,-0.01176 -0.34315,-0.05168 -0.534521,-0.08871 z"
           id="path147" /><g
           id="g149"><path
             style="fill:#000080;stroke-width:0.0277391"
             d="M 71.398885,79.082525 72.15169,46.461271 73.023658,46.315691 75.2924,79.069594 Z"
             id="path148"
             sodipodi:nodetypes="ccccc" /><path
             style="fill:#000080;stroke-width:0.0277391"
             d="M 73.704899,9.8031683 72.952094,42.424423 72.080126,42.570003 69.811384,9.8161003 Z"
             id="path149"
             sodipodi:nodetypes="ccccc" /></g></g><g
         id="g153"
         transform="translate(21.166674)"><path
           style="fill:#000080;stroke-width:0.156951"
           d="m 77.308224,74.684004 c -0.249492,-0.04828 -0.370088,-0.208776 -0.426188,-0.567194 -0.04303,-0.27492 -0.477546,-6.679809 -0.965585,-14.233085 -1.037453,-16.056407 -1.042963,-13.235214 0.06726,-34.437783 0.445681,-8.511449 0.791982,-13.975036 0.887705,-14.005344 0.508635,-0.161045 0.558914,0.28029 1.738303,15.258247 1.053814,13.383198 1.175165,15.336175 1.091626,17.568235 -0.136258,3.640674 -1.48873,29.071208 -1.588042,29.859968 -0.0482,0.382854 -0.163474,0.657935 -0.270558,0.645668 -0.102615,-0.01176 -0.34315,-0.05168 -0.534521,-0.08871 z"
           id="path150" /><g
           id="g152"><path
             style="fill:#000080;stroke-width:0.0277391"
             d="M 71.398885,79.082525 72.15169,46.461271 73.023658,46.315691 75.2924,79.069594 Z"
             id="path151"
             sodipodi:nodetypes="ccccc" /><path
             style="fill:#000080;stroke-width:0.0277391"
             d="M 73.704899,9.8031683 72.952094,42.424423 72.080126,42.570003 69.811384,9.8161003 Z"
             id="path152"
             sodipodi:nodetypes="ccccc" /></g></g><g
         id="g156"
         transform="translate(31.220847)"><path
           style="fill:#000080;stroke-width:0.156951"
           d="m 77.308224,74.684004 c -0.249492,-0.04828 -0.370088,-0.208776 -0.426188,-0.567194 -0.04303,-0.27492 -0.477546,-6.679809 -0.965585,-14.233085 -1.037453,-16.056407 -1.042963,-13.235214 0.06726,-34.437783 0.445681,-8.511449 0.791982,-13.975036 0.887705,-14.005344 0.508635,-0.161045 0.558914,0.28029 1.738303,15.258247 1.053814,13.383198 1.175165,15.336175 1.091626,17.568235 -0.136258,3.640674 -1.48873,29.071208 -1.588042,29.859968 -0.0482,0.382854 -0.163474,0.657935 -0.270558,0.645668 -0.102615,-0.01176 -0.34315,-0.05168 -0.534521,-0.08871 z"
           id="path153" /><g
           id="g155"><path
             style="fill:#000080;stroke-width:0.0277391"
             d="M 71.398885,79.082525 72.15169,46.461271 73.023658,46.315691 75.2924,79.069594 Z"
             id="path154"
             sodipodi:nodetypes="ccccc" /><path
             style="fill:#000080;stroke-width:0.0277391"
             d="M 73.704899,9.8031683 72.952094,42.424423 72.080126,42.570003 69.811384,9.8161003 Z"
             id="path155"
             sodipodi:nodetypes="ccccc" /></g></g><g
         id="g159"
         transform="translate(41.27502)"><path
           style="fill:#000080;stroke-width:0.156951"
           d="m 77.308224,74.684004 c -0.249492,-0.04828 -0.370088,-0.208776 -0.426188,-0.567194 -0.04303,-0.27492 -0.477546,-6.679809 -0.965585,-14.233085 -1.037453,-16.056407 -1.042963,-13.235214 0.06726,-34.437783 0.445681,-8.511449 0.791982,-13.975036 0.887705,-14.005344 0.508635,-0.161045 0.558914,0.28029 1.738303,15.258247 1.053814,13.383198 1.175165,15.336175 1.091626,17.568235 -0.136258,3.640674 -1.48873,29.071208 -1.588042,29.859968 -0.0482,0.382854 -0.163474,0.657935 -0.270558,0.645668 -0.102615,-0.01176 -0.34315,-0.05168 -0.534521,-0.08871 z"
           id="path156" /><g
           id="g158"><path
             style="fill:#000080;stroke-width:0.0277391"
             d="M 71.398885,79.082525 72.15169,46.461271 73.023658,46.315691 75.2924,79.069594 Z"
             id="path157"
             sodipodi:nodetypes="ccccc" /><path
             style="fill:#000080;stroke-width:0.0277391"
             d="M 73.704899,9.8031683 72.952094,42.424423 72.080126,42.570003 69.811384,9.8161003 Z"
             id="path158"
             sodipodi:nodetypes="ccccc" /></g></g><g
         id="g162"
         transform="translate(51.329193)"><path
           style="fill:#000080;stroke-width:0.156951"
           d="m 77.308224,74.684004 c -0.249492,-0.04828 -0.370088,-0.208776 -0.426188,-0.567194 -0.04303,-0.27492 -0.477546,-6.679809 -0.965585,-14.233085 -1.037453,-16.056407 -1.042963,-13.235214 0.06726,-34.437783 0.445681,-8.511449 0.791982,-13.975036 0.887705,-14.005344 0.508635,-0.161045 0.558914,0.28029 1.738303,15.258247 1.053814,13.383198 1.175165,15.336175 1.091626,17.568235 -0.136258,3.640674 -1.48873,29.071208 -1.588042,29.859968 -0.0482,0.382854 -0.163474,0.657935 -0.270558,0.645668 -0.102615,-0.01176 -0.34315,-0.05168 -0.534521,-0.08871 z"
           id="path159" /><g
           id="g161"><path
             style="fill:#000080;stroke-width:0.0277391"
             d="M 71.398885,79.082525 72.15169,46.461271 73.023658,46.315691 75.2924,79.069594 Z"
             id="path160"
             sodipodi:nodetypes="ccccc" /><path
             style="fill:#000080;stroke-width:0.0277391"
             d="M 73.704899,9.8031683 72.952094,42.424423 72.080126,42.570003 69.811384,9.8161003 Z"
             id="path161"
             sodipodi:nodetypes="ccccc" /></g></g><path
         style="fill:#000080;stroke-width:0.156951"
         d="m 138.16243,74.684004 c -0.24949,-0.04828 -0.37009,-0.208776 -0.42619,-0.567194 -0.043,-0.27492 -0.47755,-6.679809 -0.96558,-14.233085 -1.03746,-16.056407 -1.04297,-13.235214 0.0673,-34.437783 0.44568,-8.511449 0.79198,-13.975036 0.8877,-14.005344 0.50864,-0.161045 0.55891,0.28029 1.7383,15.258247 1.05382,13.383198 1.17517,15.336175 1.09163,17.568235 -0.13626,3.640674 -1.48873,29.071208 -1.58804,29.859968 -0.0482,0.382854 -0.16348,0.657935 -0.27056,0.645668 -0.10261,-0.01176 -0.34315,-0.05168 -0.53452,-0.08871 z"
         id="path162" /><g
         id="g164"
         transform="translate(60.854199)"><path
           style="fill:#000080;stroke-width:0.0277391"
           d="M 71.398885,79.082525 72.15169,46.461271 73.023658,46.315691 75.2924,79.069594 Z"
           id="path163"
           sodipodi:nodetypes="ccccc" /><path
           style="fill:#000080;stroke-width:0.0277391"
           d="M 73.704899,9.8031683 72.952094,42.424423 72.080126,42.570003 69.811384,9.8161003 Z"
           id="path164"
           sodipodi:nodetypes="ccccc" /></g><path
         style="fill:#000080;stroke-width:0.156951"
         d="m 69.370504,74.684004 c -0.249487,-0.04828 -0.370087,-0.208776 -0.426187,-0.567194 -0.043,-0.27492 -0.477547,-6.679809 -0.965574,-14.233085 -1.037454,-16.056407 -1.042964,-13.235214 0.0673,-34.437783 0.445677,-8.511449 0.791974,-13.975036 0.887694,-14.005344 0.508637,-0.161045 0.558907,0.28029 1.738291,15.258247 1.053814,13.383198 1.175164,15.336175 1.091624,17.568235 -0.13626,3.640674 -1.488721,29.071208 -1.588031,29.859968 -0.0482,0.382854 -0.16348,0.657935 -0.27056,0.645668 -0.102607,-0.01176 -0.343147,-0.05168 -0.534517,-0.08871 z"
         id="path165" /><g
         id="g169"><path
           style="fill:#000080;stroke-width:0.0277391"
           d="m 65.145194,79.038344 -0.17298,-32.641837 0.49102,-0.199859 2.26874,32.753903 z"
           id="path166"
           sodipodi:nodetypes="ccccc" /><g
           id="g168"
           transform="translate(-100.61401,-0.65667416)"><path
             style="fill:#000080;stroke-width:0.264583"
             d="m 165.47448,43.26514 c 0,37.618931 0.14423,37.498675 0.14423,37.498675"
             id="path167" /><path
             style="fill:#000080;stroke-width:0.0277391"
             d="m 165.55581,10.493134 -0.17298,32.641837 0.49102,0.199859 2.26874,-32.753903 z"
             id="path168"
             sodipodi:nodetypes="ccccc" /></g></g><g
         id="g172"
         transform="matrix(-1,0,0,1,207.11376,0)"><path
           style="fill:#000080;stroke-width:0.0277391"
           d="m 65.145194,79.038344 -0.17298,-32.641837 0.49102,-0.199859 2.26874,32.753903 z"
           id="path169"
           sodipodi:nodetypes="ccccc" /><g
           id="g171"
           transform="translate(-100.61401,-0.65667416)"><path
             style="fill:#000080;stroke-width:0.264583"
             d="m 165.47448,43.26514 c 0,37.618931 0.14423,37.498675 0.14423,37.498675"
             id="path170" /><path
             style="fill:#000080;stroke-width:0.0277391"
             d="m 165.55581,10.493134 -0.17298,32.641837 0.49102,0.199859 2.26874,-32.753903 z"
             id="path171"
             sodipodi:nodetypes="ccccc" /></g></g></g></g><g
     inkscape:groupmode="layer"
     id="layer5"
     inkscape:label="box"
     style="display:inline"><g
       inkscape:groupmode="layer"
       id="layer6"
       inkscape:label="outside"
       style="display:inline"><path
         d="m 10.07,79.14 h 12.25 c 0.039,0 0.07,-0.031 0.07,-0.07 v -5.43 c 0,-0.07 -0.07,0 0,0 h 10.86 c 0.07,0 0,-0.07 0,0 v 5.43 c 0,0.039 0.031,0.07 0.07,0.07 h 12.25 22.545 19 c 0.038,0 0.07,-0.031 0.07,-0.07 v -5.43 c 0,-0.07 -0.07,0 0,0 h 10.86 c 0.07,0 0,-0.07 0,0 v 5.43 c 0,0.039 0.031,0.07 0.07,0.07 h 11 c 0.038,0 0.07,-0.031 0.07,-0.07 v -5.43 c 0,-0.07 -0.07,0 0,0 h 10.86 c 0.07,0 0,-0.07 0,0 v 5.43 c 0,0.039 0.031,0.07 0.07,0.07 h 19 22.544 19 c 0.039,0 0.07,-0.031 0.07,-0.07 v -5.43 c 0,-0.07 -0.07,0 0,0 h 10.86 c 0.07,0 0,-0.07 0,0 v 5.43 c 0,0.039 0.032,0.07 0.07,0.07 h 11 c 0.039,0 0.07,-0.031 0.07,-0.07 v -5.43 c 0,-0.07 -0.07,0 0,0 h 10.86 c 0.07,0 0,-0.07 0,0 v 5.43 c 0,0.039 0.032,0.07 0.07,0.07 h 19 22.545 19 c 0.039,0 0.07,-0.031 0.07,-0.07 v -5.43 c 0,-0.07 -0.07,0 0,0 h 10.86 c 0.07,0 0,-0.07 0,0 v 5.43 c 0,0.039 0.031,0.07 0.07,0.07 h 11 c 0.039,0 0.07,-0.031 0.07,-0.07 v -5.43 c 0,-0.07 -0.07,0 0,0 h 10.86 c 0.07,0 0,-0.07 0,0 v 5.43 c 0,0.039 0.031,0.07 0.07,0.07 h 19 22.545 12.25 c 0.038,0 0.07,-0.031 0.07,-0.07 v -5.43 c 0,-0.07 -0.07,0 0,0 h 10.86 c 0.07,0 0,-0.07 0,0 v 5.43 c 0,0.039 0.031,0.07 0.07,0.07 h 12.25 c 0.038,0 0.07,-0.031 0.07,-0.07 v -5.5 -22.644 c 0,-0.211 0.065,-0.417 0.186,-0.591 0.121,-0.173 0.293,-0.304 0.491,-0.377 0.199,-0.072 0.415,-0.081 0.619,-0.027 0.204,0.055 0.387,0.171 0.523,0.333 l 4.364,5.202 c 0.155,0.184 0.362,0.316 0.594,0.378 0.232,0.062 0.477,0.051 0.703,-0.031 0.225,-0.082 0.42,-0.231 0.558,-0.428 0.138,-0.197 0.212,-0.431 0.212,-0.671 V 34.426 c 0,-0.24 -0.074,-0.474 -0.212,-0.671 -0.138,-0.197 -0.333,-0.346 -0.558,-0.428 -0.226,-0.082 -0.471,-0.093 -0.703,-0.031 -0.232,0.062 -0.439,0.194 -0.594,0.378 l -4.364,5.202 c -0.136,0.162 -0.319,0.278 -0.523,0.333 -0.204,0.054 -0.42,0.045 -0.619,-0.027 -0.198,-0.073 -0.37,-0.204 -0.491,-0.377 -0.121,-0.174 -0.186,-0.38 -0.186,-0.591 V 15.57 10.07 c 0,-0.039 -0.032,-0.07 -0.07,-0.07 h -12.25 c -0.039,0 -0.07,0.031 -0.07,0.07 v 5.43 c 0,0.07 0.07,0 0,0 h -10.86 c -0.07,0 0,0.07 0,0 v -5.43 c 0,-0.039 -0.032,-0.07 -0.07,-0.07 h -12.25 -22.545 -19 c -0.039,0 -0.07,0.031 -0.07,0.07 v 5.43 c 0,0.07 0.07,0 0,0 h -10.86 c -0.07,0 0,0.07 0,0 v -5.43 c 0,-0.039 -0.031,-0.07 -0.07,-0.07 h -11 c -0.039,0 -0.07,0.031 -0.07,0.07 v 5.43 c 0,0.07 0.07,0 0,0 h -10.86 c -0.07,0 0,0.07 0,0 v -5.43 c 0,-0.039 -0.031,-0.07 -0.07,-0.07 h -19 -22.545 -19 c -0.038,0 -0.07,0.031 -0.07,0.07 v 5.43 c 0,0.07 0.07,0 0,0 h -10.86 c -0.07,0 0,0.07 0,0 v -5.43 c 0,-0.039 -0.031,-0.07 -0.07,-0.07 h -11 c -0.038,0 -0.07,0.031 -0.07,0.07 v 5.43 c 0,0.07 0.07,0 0,0 h -10.86 c -0.07,0 0,0.07 0,0 v -5.43 c 0,-0.039 -0.031,-0.07 -0.07,-0.07 h -19 -22.544 -19 c -0.039,0 -0.07,0.031 -0.07,0.07 v 5.43 c 0,0.07 0.07,0 0,0 h -10.86 c -0.07,0 0,0.07 0,0 v -5.43 c 0,-0.039 -0.032,-0.07 -0.07,-0.07 h -11 c -0.039,0 -0.07,0.031 -0.07,0.07 v 5.43 c 0,0.07 0.07,0 0,0 h -10.86 c -0.07,0 0,0.07 0,0 v -5.43 c 0,-0.039 -0.032,-0.07 -0.07,-0.07 h -19 H 45.57 33.32 c -0.039,0 -0.07,0.031 -0.07,0.07 v 5.43 c 0,0.07 0.07,0 0,0 H 22.39 c -0.07,0 0,0.07 0,0 V 10.07 C 22.39,10.031 22.359,10 22.32,10 H 10.07 C 10.031,10 10,10.031 10,10.07 v 5.5 22.644 c 0,0.24 0.074,0.474 0.212,0.671 0.137,0.197 0.332,0.346 0.558,0.428 0.225,0.082 0.471,0.093 0.703,0.031 0.232,-0.062 0.439,-0.194 0.593,-0.378 l 4.365,-5.202 c 0.136,-0.162 0.318,-0.278 0.522,-0.333 0.205,-0.054 0.421,-0.045 0.619,0.027 0.199,0.073 0.37,0.204 0.492,0.377 0.121,0.174 0.186,0.38 0.186,0.591 v 20.288 c 0,0.211 -0.065,0.417 -0.186,0.591 -0.122,0.173 -0.293,0.304 -0.492,0.377 -0.198,0.072 -0.414,0.081 -0.619,0.027 -0.204,-0.055 -0.386,-0.171 -0.522,-0.333 L 12.066,50.174 C 11.912,49.99 11.705,49.858 11.473,49.796 11.241,49.734 10.995,49.745 10.77,49.827 10.544,49.909 10.349,50.058 10.212,50.255 10.074,50.452 10,50.686 10,50.926 v 22.644 5.5 c 0,0.039 0.031,0.07 0.07,0.07 z"
         stroke="#000000"
         stroke-width="0.14"
         id="path5"
         style="display:inline;fill:none;stroke-linecap:round;stroke-linejoin:round" /></g><g
       inkscape:groupmode="layer"
       id="layer8"
       inkscape:label="inside"
       style="display:inline"><path
         d="M 48.592,79.14 V 47.32 m 0,-5.5 V 10 m 2.75,5.5 v 58.14 m 2.75,5.5 V 47.32 m 0,-5.5 V 10 m 2.75,5.5 v 58.14 m 2.75,5.5 V 47.32 m 0,-5.5 V 10 m 2.75,5.5 v 58.14 m 2.75,5.5 V 47.32 m 0,-5.5 V 10"
         stroke="#000000"
         stroke-width="0.14"
         id="path6"
         style="display:inline;fill:none;stroke-linecap:round;stroke-linejoin:round" /><path
         d="M 142.137,79.14 V 47.32 m 0,-5.5 V 10 m 2.75,5.5 v 58.14 m 2.75,5.5 V 47.32 m 0,-5.5 V 10 m 2.75,5.5 v 58.14 m 2.75,5.5 V 47.32 m 0,-5.5 V 10 m 2.75,5.5 v 58.14 m 2.75,5.5 V 47.32 m 0,-5.5 V 10"
         stroke="#000000"
         stroke-width="0.14"
         id="path7"
         style="display:inline;fill:none;stroke-linecap:round;stroke-linejoin:round" /><path
         d="M 235.682,79.14 V 47.32 m 0,-5.5 V 10 m 2.75,5.5 v 58.14 m 2.75,5.5 V 47.32 m 0,-5.5 V 10 m 2.75,5.5 v 58.14 m 2.75,5.5 V 47.32 m 0,-5.5 V 10 m 2.75,5.5 v 58.14 m 2.75,5.5 V 47.32 m 0,-5.5 V 10"
         stroke="#000000"
         stroke-width="0.14"
         id="path8"
         style="display:inline;fill:none;stroke-linecap:round;stroke-linejoin:round" /><path
         d="M 329.226,79.14 V 47.32 m 0,-5.5 V 10 m 2.75,5.5 v 58.14 m 2.75,5.5 V 47.32 m 0,-5.5 V 10 m 2.75,5.5 v 58.14 m 2.75,5.5 V 47.32 m 0,-5.5 V 10 m 2.75,5.5 v 58.14 m 2.75,5.5 V 47.32 m 0,-5.5 V 10"
         stroke="#000000"
         stroke-width="0.14"
         id="path9"
         style="display:inline;fill:none;stroke-linecap:round;stroke-linejoin:round" /></g></g></svg>
