<?xml version="1.0" encoding="UTF-8" standalone="no"?>
<!-- Created with Inkscape (http://www.inkscape.org/) -->

<svg
   width="39.158283mm"
   height="39.158283mm"
   viewBox="0 0 39.158283 39.158283"
   version="1.1"
   id="svg1"
   inkscape:version="1.4 (e7c3feb100, 2024-10-09)"
   sodipodi:docname="qr-code.svg"
   xmlns:inkscape="http://www.inkscape.org/namespaces/inkscape"
   xmlns:sodipodi="http://sodipodi.sourceforge.net/DTD/sodipodi-0.dtd"
   xmlns="http://www.w3.org/2000/svg"
   xmlns:svg="http://www.w3.org/2000/svg">
  <sodipodi:namedview
     id="namedview1"
     pagecolor="#ffffff"
     bordercolor="#000000"
     borderopacity="0.25"
     inkscape:showpageshadow="2"
     inkscape:pageopacity="0.0"
     inkscape:pagecheckerboard="0"
     inkscape:deskcolor="#d1d1d1"
     inkscape:document-units="mm"
     inkscape:zoom="0.77415123"
     inkscape:cx="32.9393"
     inkscape:cy="304.20413"
     inkscape:window-width="1896"
     inkscape:window-height="1032"
     inkscape:window-x="0"
     inkscape:window-y="0"
     inkscape:window-maximized="1"
     inkscape:current-layer="svg1" />
  <defs
     id="defs1" />
  <g
     inkscape:label="Layer 1"
     inkscape:groupmode="layer"
     id="layer1"
     transform="translate(-96.208924,-68.183544)" />
  <g
     inkscape:label="QR Code: https://github.com/caryfitz/you-inspire-me"
     transform="scale(0.264583)"
     id="g9">
    <rect
       x="0"
       y="0"
       width="148"
       height="148"
       style="fill:#ffffff;stroke:none"
       id="rect7" />
    <g
       style="fill:#000000;stroke:none"
       id="g8">
      <path
         d="m 131.6,132 h -3.2 c -0.221,0 -0.4,-0.179 -0.4,-0.4 v -3.2 c 0,-0.221 0.179,-0.4 0.4,-0.4 h 3.2 c 0.221,0 0.4,0.179 0.4,0.4 v 3.2 c 0,0.221 -0.179,0.4 -0.4,0.4 z m -12,0 h -7.2 c -0.221,0 -0.4,-0.179 -0.4,-0.4 v -3.2 c 0,-0.221 -0.179,-0.4 -0.4,-0.4 h -3.2 c -0.221,0 -0.4,-0.179 -0.4,-0.4 v -3.2 c 0,-0.221 0.179,-0.4 0.4,-0.4 h 3.2 c 0.221,0 0.4,-0.179 0.4,-0.4 v -7.2 c 0,-0.221 -0.179,-0.4 -0.4,-0.4 h -7.2 c -0.221,0 -0.4,0.179 -0.4,0.4 v 7.2 c 0,0.221 -0.179,0.4 -0.4,0.4 H 100 v -3.6 c 0,-0.221 -0.1791,-0.4 -0.4,-0.4 h -7.2 c -0.2209,0 -0.4,0.179 -0.4,0.4 v 7.2 c 0,0.221 -0.1791,0.4 -0.4,0.4 h -3.2 c -0.2209,0 -0.4,-0.179 -0.4,-0.4 v -3.2 C 88,124.179 87.8209,124 87.6,124 H 84 v -3.6 c 0,-0.221 -0.1791,-0.4 -0.4,-0.4 h -3.2 c -0.2209,0 -0.4,0.179 -0.4,0.4 v 3.2 c 0,0.221 0.1791,0.4 0.4,0.4 H 84 v 7.6 c 0,0.221 -0.1791,0.4 -0.4,0.4 h -3.2 c -0.2209,0 -0.4,-0.179 -0.4,-0.4 v -3.2 c 0,-0.221 -0.1791,-0.4 -0.4,-0.4 h -3.2 c -0.2209,0 -0.4,-0.179 -0.4,-0.4 v -11.2 c 0,-0.221 -0.1791,-0.4 -0.4,-0.4 h -3.2 c -0.2209,0 -0.4,0.179 -0.4,0.4 v 3.2 c 0,0.221 -0.1791,0.4 -0.4,0.4 H 68.4 C 68.1791,120 68,119.821 68,119.6 V 112 h 3.6 c 0.2209,0 0.4,-0.179 0.4,-0.4 V 108 h 4 v 3.6 c 0,0.221 0.1791,0.4 0.4,0.4 H 80 v 3.6 c 0,0.221 0.1791,0.4 0.4,0.4 h 11.2 c 0.2209,0 0.4,-0.179 0.4,-0.4 v -3.2 c 0,-0.221 -0.1791,-0.4 -0.4,-0.4 h -3.2 c -0.2209,0 -0.4,-0.179 -0.4,-0.4 v -3.2 c 0,-0.221 0.1791,-0.4 0.4,-0.4 h 7.2 c 0.2209,0 0.4,-0.179 0.4,-0.4 V 92 h 3.6 c 0.2209,0 0.4,0.1791 0.4,0.4 v 3.2 c 0,0.2209 0.179,0.4 0.4,0.4 h 3.2 c 0.221,0 0.4,-0.1791 0.4,-0.4 v -3.2 c 0,-0.2209 0.179,-0.4 0.4,-0.4 h 3.2 c 0.221,0 0.4,0.1791 0.4,0.4 v 3.2 c 0,0.2209 0.179,0.4 0.4,0.4 h 3.2 c 0.221,0 0.4,-0.1791 0.4,-0.4 V 88 h 8 v 3.6 c 0,0.2209 -0.179,0.4 -0.4,0.4 h -3.2 c -0.221,0 -0.4,0.1791 -0.4,0.4 v 3.2 c 0,0.2209 0.179,0.4 0.4,0.4 h 3.2 c 0.221,0 0.4,0.1791 0.4,0.4 v 3.2 c 0,0.2209 0.179,0.4 0.4,0.4 h 3.6 v 3.6 c 0,0.221 -0.179,0.4 -0.4,0.4 h -7.2 c -0.221,0 -0.4,0.179 -0.4,0.4 v 7.2 c 0,0.221 0.179,0.4 0.4,0.4 h 3.2 c 0.221,0 0.4,0.179 0.4,0.4 v 3.2 c 0,0.221 0.179,0.4 0.4,0.4 h 3.6 v 4 h -7.6 c -0.221,0 -0.4,0.179 -0.4,0.4 v 3.2 c 0,0.221 0.179,0.4 0.4,0.4 h 3.2 c 0.221,0 0.4,0.179 0.4,0.4 v 7.2 c 0,0.221 -0.179,0.4 -0.4,0.4 z m -20,0 h -3.2 c -0.2209,0 -0.4,-0.179 -0.4,-0.4 v -7.2 c 0,-0.221 0.1791,-0.4 0.4,-0.4 h 3.6 v 7.6 c 0,0.221 -0.1791,0.4 -0.4,0.4 z m -28,0 H 48.4 c -0.2209,0 -0.4,-0.179 -0.4,-0.4 v -11.2 c 0,-0.221 0.1791,-0.4 0.4,-0.4 h 3.2 c 0.2209,0 0.4,-0.179 0.4,-0.4 V 112 h 3.6 c 0.2209,0 0.4,0.179 0.4,0.4 v 3.2 c 0,0.221 0.1791,0.4 0.4,0.4 h 3.2 c 0.2209,0 0.4,0.179 0.4,0.4 v 3.6 h -3.6 c -0.2209,0 -0.4,0.179 -0.4,0.4 v 3.2 c 0,0.221 0.1791,0.4 0.4,0.4 H 60 v 3.6 c 0,0.221 0.1791,0.4 0.4,0.4 h 7.2 c 0.2209,0 0.4,-0.179 0.4,-0.4 v -3.2 c 0,-0.221 0.1791,-0.4 0.4,-0.4 h 3.2 c 0.2209,0 0.4,0.179 0.4,0.4 v 7.2 c 0,0.221 -0.1791,0.4 -0.4,0.4 z m -28,0 H 16.4 c -0.2209,0 -0.4,-0.179 -0.4,-0.4 v -27.2 c 0,-0.221 0.1791,-0.4 0.4,-0.4 h 27.2 c 0.2209,0 0.4,0.179 0.4,0.4 v 27.2 c 0,0.221 -0.1791,0.4 -0.4,0.4 z M 40,127.6 V 108.4 C 40,108.179 39.8209,108 39.6,108 H 20.4 c -0.2209,0 -0.4,0.179 -0.4,0.4 v 19.2 c 0,0.221 0.1791,0.4 0.4,0.4 h 19.2 c 0.2209,0 0.4,-0.179 0.4,-0.4 z m 91.6,-3.6 h -7.2 c -0.221,0 -0.4,-0.179 -0.4,-0.4 V 120 h 3.6 c 0.221,0 0.4,-0.179 0.4,-0.4 V 116 h 3.6 c 0.221,0 0.4,0.179 0.4,0.4 v 7.2 c 0,0.221 -0.179,0.4 -0.4,0.4 z m -68,0 H 60 v -4 h 3.6 c 0.2209,0 0.4,0.179 0.4,0.4 v 3.2 c 0,0.221 -0.1791,0.4 -0.4,0.4 z m -28,0 H 24.4 c -0.2209,0 -0.4,-0.179 -0.4,-0.4 v -11.2 c 0,-0.221 0.1791,-0.4 0.4,-0.4 h 11.2 c 0.2209,0 0.4,0.179 0.4,0.4 v 11.2 c 0,0.221 -0.1791,0.4 -0.4,0.4 z m 92,-8 H 124 v -3.6 c 0,-0.221 0.179,-0.4 0.4,-0.4 h 3.6 v 4 z m 4,-4 H 128 v -12 h 3.6 c 0.221,0 0.4,0.179 0.4,0.4 v 11.2 c 0,0.221 -0.179,0.4 -0.4,0.4 z M 112,111.6 v -11.2 c 0,-0.221 -0.179,-0.4 -0.4,-0.4 h -11.2 c -0.221,0 -0.4,0.179 -0.4,0.4 v 11.2 c 0,0.221 0.179,0.4 0.4,0.4 h 11.2 c 0.221,0 0.4,-0.179 0.4,-0.4 z M 83.6,112 H 80 v -4 h 3.6 c 0.2209,0 0.4,0.179 0.4,0.4 v 3.2 c 0,0.221 -0.1791,0.4 -0.4,0.4 z m -16,0 h -7.2 c -0.2209,0 -0.4,-0.179 -0.4,-0.4 v -3.2 c 0,-0.221 0.1791,-0.4 0.4,-0.4 h 3.2 c 0.2209,0 0.4,-0.179 0.4,-0.4 v -7.2 C 64,100.179 63.8209,100 63.6,100 H 52.4 c -0.2209,0 -0.4,0.179 -0.4,0.4 v 3.2 c 0,0.221 -0.1791,0.4 -0.4,0.4 H 48.4 C 48.1791,104 48,103.821 48,103.6 V 96 h 19.6 c 0.2209,0 0.4,0.1791 0.4,0.4 v 7.2 c 0,0.221 0.1791,0.4 0.4,0.4 h 3.2 c 0.2209,0 0.4,0.179 0.4,0.4 v 3.6 h -3.6 c -0.2209,0 -0.4,0.179 -0.4,0.4 v 3.6 z m -16,0 h -3.2 c -0.2209,0 -0.4,-0.179 -0.4,-0.4 v -3.2 c 0,-0.221 0.1791,-0.4 0.4,-0.4 h 3.2 c 0.2209,0 0.4,0.179 0.4,0.4 v 3.6 z m 56,-4 h -3.2 c -0.221,0 -0.4,-0.179 -0.4,-0.4 v -3.2 c 0,-0.221 0.179,-0.4 0.4,-0.4 h 3.2 c 0.221,0 0.4,0.179 0.4,0.4 v 3.2 c 0,0.221 -0.179,0.4 -0.4,0.4 z m -28,0 H 76 v -7.6 c 0,-0.221 0.1791,-0.4 0.4,-0.4 H 80 v 8 z m 8,-4 H 84.4 C 84.1791,104 84,103.821 84,103.6 V 100 h 4 v 3.6 c 0,0.221 -0.1791,0.4 -0.4,0.4 z m 40,-4 H 124 v -3.6 c 0,-0.2209 0.179,-0.4 0.4,-0.4 h 3.2 c 0.221,0 0.4,0.1791 0.4,0.4 v 3.6 z m -36,0 H 88 V 96.4 C 88,96.1791 88.1791,96 88.4,96 h 3.2 c 0.2209,0 0.4,0.1791 0.4,0.4 v 3.2 c 0,0.2209 -0.1791,0.4 -0.4,0.4 z m -8,0 H 80 v -8 h 3.6 c 0.2209,0 0.4,0.1791 0.4,0.4 v 7.6 z m -40,0 H 40.4 C 40.1791,100 40,99.8209 40,99.6 V 96 h 4 v 3.6 c 0,0.2209 -0.1791,0.4 -0.4,0.4 z m -12,0 H 28.4 C 28.1791,100 28,99.8209 28,99.6 V 96.4 C 28,96.1791 28.1791,96 28.4,96 H 32 v 3.6 c 0,0.2209 -0.1791,0.4 -0.4,0.4 z m -8,0 H 16.4 C 16.1791,100 16,99.8209 16,99.6 V 96.4 C 16,96.1791 16.1791,96 16.4,96 h 7.2 c 0.2209,0 0.4,0.1791 0.4,0.4 v 3.2 c 0,0.2209 -0.1791,0.4 -0.4,0.4 z m 52,-4 H 72.4 C 72.1791,96 72,95.8209 72,95.6 V 92 h 4 v 3.6 c 0,0.2209 -0.1791,0.4 -0.4,0.4 z m -28,0 H 44 V 92.4 C 44,92.1791 43.8209,92 43.6,92 H 40.4 C 40.1791,92 40,92.1791 40,92.4 V 96 H 32 V 92.4 C 32,92.1791 32.1791,92 32.4,92 h 3.2 C 35.8209,92 36,91.8209 36,91.6 V 88.4 C 36,88.1791 35.8209,88 35.6,88 H 28.4 C 28.1791,88 28,87.8209 28,87.6 V 80 h 3.6 c 0.2209,0 0.4,0.1791 0.4,0.4 v 3.2 c 0,0.2209 0.1791,0.4 0.4,0.4 H 40 v 3.6 c 0,0.2209 0.1791,0.4 0.4,0.4 H 48 v 8 z m 84,-4 h -3.2 C 128.179,92 128,91.8209 128,91.6 V 88.4 C 128,88.1791 127.821,88 127.6,88 H 120 v -3.6 c 0,-0.2209 0.179,-0.4 0.4,-0.4 h 7.2 c 0.221,0 0.4,-0.1791 0.4,-0.4 v -3.2 c 0,-0.2209 0.179,-0.4 0.4,-0.4 h 3.2 c 0.221,0 0.4,0.1791 0.4,0.4 v 11.2 c 0,0.2209 -0.179,0.4 -0.4,0.4 z m -36,0 H 88.4 C 88.1791,92 88,91.8209 88,91.6 V 88.4 C 88,88.1791 87.8209,88 87.6,88 H 80.4 C 80.1791,88 80,88.1791 80,88.4 V 92 H 76 V 84.4 C 76,84.1791 76.1791,84 76.4,84 h 3.2 C 79.8209,84 80,83.8209 80,83.6 V 80.4 C 80,80.1791 80.1791,80 80.4,80 h 3.2 c 0.2209,0 0.4,0.1791 0.4,0.4 v 3.2 c 0,0.2209 0.1791,0.4 0.4,0.4 H 96 v 8 z m -24,0 H 68.4 C 68.1791,92 68,91.8209 68,91.6 V 84.4 C 68,84.1791 68.1791,84 68.4,84 h 3.2 c 0.2209,0 0.4,0.1791 0.4,0.4 V 92 Z m -8,0 H 60.4 C 60.1791,92 60,91.8209 60,91.6 V 88.4 C 60,88.1791 60.1791,88 60.4,88 h 3.2 c 0.2209,0 0.4,0.1791 0.4,0.4 v 3.2 c 0,0.2209 -0.1791,0.4 -0.4,0.4 z m -8,0 H 52.4 C 52.1791,92 52,91.8209 52,91.6 V 88.4 C 52,88.1791 51.8209,88 51.6,88 H 48 V 80.4 C 48,80.1791 48.1791,80 48.4,80 h 3.2 c 0.2209,0 0.4,0.1791 0.4,0.4 v 3.2 c 0,0.2209 0.1791,0.4 0.4,0.4 h 3.2 c 0.2209,0 0.4,0.1791 0.4,0.4 v 7.2 c 0,0.2209 -0.1791,0.4 -0.4,0.4 z m -32,0 H 16.4 C 16.1791,92 16,91.8209 16,91.6 V 88.4 C 16,88.1791 16.1791,88 16.4,88 h 7.2 c 0.2209,0 0.4,0.1791 0.4,0.4 v 3.2 c 0,0.2209 -0.1791,0.4 -0.4,0.4 z m 88,-4 h -7.2 C 104.179,88 104,87.8209 104,87.6 V 84.4 C 104,84.1791 103.821,84 103.6,84 H 96 V 80.4 C 96,80.1791 95.8209,80 95.6,80 H 92.4 C 92.1791,80 92,79.8209 92,79.6 V 72.4 C 92,72.1791 91.8209,72 91.6,72 H 88 V 68.4 C 88,68.1791 88.1791,68 88.4,68 h 3.2 C 91.8209,68 92,67.8209 92,67.6 V 64.4 C 92,64.1791 91.8209,64 91.6,64 H 88.4 C 88.1791,64 88,63.8209 88,63.6 V 60.4 C 88,60.1791 87.8209,60 87.6,60 H 84.4 C 84.1791,60 84,60.1791 84,60.4 V 72 H 80.4 C 80.1791,72 80,72.1791 80,72.4 v 3.2 C 80,75.8209 79.8209,76 79.6,76 H 76 v -8 h 3.6 C 79.8209,68 80,67.8209 80,67.6 V 64.4 C 80,64.1791 79.8209,64 79.6,64 H 76.4 C 76.1791,64 76,64.1791 76,64.4 V 68 h -4 v -8 h 3.6 C 75.8209,60 76,59.8209 76,59.6 V 44 h 4 v 7.6 c 0,0.2209 0.1791,0.4 0.4,0.4 h 7.2 c 0.2209,0 0.4,0.1791 0.4,0.4 v 3.2 c 0,0.2209 0.1791,0.4 0.4,0.4 h 3.2 C 91.8209,56 92,55.8209 92,55.6 V 48.4 C 92,48.1791 92.1791,48 92.4,48 h 23.2 c 0.221,0 0.4,0.1791 0.4,0.4 v 3.2 c 0,0.2209 -0.179,0.4 -0.4,0.4 h -3.2 c -0.221,0 -0.4,0.1791 -0.4,0.4 v 3.2 c 0,0.2209 0.179,0.4 0.4,0.4 H 124 v 3.6 c 0,0.2209 -0.179,0.4 -0.4,0.4 h -3.2 c -0.221,0 -0.4,0.1791 -0.4,0.4 v 3.2 c 0,0.2209 -0.179,0.4 -0.4,0.4 H 112 V 60.4 C 112,60.1791 111.821,60 111.6,60 H 104 V 56.4 C 104,56.1791 103.821,56 103.6,56 H 96.4 C 96.1791,56 96,56.1791 96,56.4 v 7.2 c 0,0.2209 0.1791,0.4 0.4,0.4 h 3.6 v 8 H 96.4 C 96.1791,72 96,72.1791 96,72.4 v 3.2 c 0,0.2209 0.1791,0.4 0.4,0.4 h 3.6 v 3.6 c 0,0.2209 0.179,0.4 0.4,0.4 h 3.2 c 0.221,0 0.4,-0.1791 0.4,-0.4 V 76.4 C 104,76.1791 103.821,76 103.6,76 H 100 v -4 h 3.6 c 0.221,0 0.4,-0.1791 0.4,-0.4 V 64 h 8 v 7.6 c 0,0.2209 0.179,0.4 0.4,0.4 h 3.2 c 0.221,0 0.4,0.1791 0.4,0.4 v 3.2 c 0,0.2209 -0.179,0.4 -0.4,0.4 h -3.2 c -0.221,0 -0.4,0.1791 -0.4,0.4 v 3.2 c 0,0.2209 -0.179,0.4 -0.4,0.4 h -3.2 c -0.221,0 -0.4,0.1791 -0.4,0.4 v 3.2 c 0,0.2209 0.179,0.4 0.4,0.4 h 3.2 c 0.221,0 0.4,0.1791 0.4,0.4 V 88 Z m -68,-4 H 40 v -4 h 3.6 c 0.2209,0 0.4,0.1791 0.4,0.4 v 3.2 c 0,0.2209 -0.1791,0.4 -0.4,0.4 z m -24,0 H 16.4 C 16.1791,84 16,83.8209 16,83.6 V 80.4 C 16,80.1791 16.1791,80 16.4,80 h 3.2 c 0.2209,0 0.4,0.1791 0.4,0.4 v 3.2 c 0,0.2209 -0.1791,0.4 -0.4,0.4 z m 56,-4 H 72.4 C 72.1791,80 72,79.8209 72,79.6 V 76 h 4 v 3.6 c 0,0.2209 -0.1791,0.4 -0.4,0.4 z m -8,0 H 60.4 C 60.1791,80 60,79.8209 60,79.6 V 76.4 C 60,76.1791 60.1791,76 60.4,76 h 3.2 C 63.8209,76 64,75.8209 64,75.6 V 68.4 C 64,68.1791 63.8209,68 63.6,68 H 60.4 C 60.1791,68 60,67.8209 60,67.6 V 64.4 C 60,64.1791 60.1791,64 60.4,64 h 7.2 c 0.2209,0 0.4,0.1791 0.4,0.4 v 3.2 c 0,0.2209 0.1791,0.4 0.4,0.4 H 72 v 8 H 68.4 C 68.1791,76 68,76.1791 68,76.4 v 3.2 c 0,0.2209 -0.1791,0.4 -0.4,0.4 z m -28,0 H 36.4 C 36.1791,80 36,79.8209 36,79.6 V 76 h 4 v 4 z m -12,0 H 24.4 C 24.1791,80 24,79.8209 24,79.6 V 76.4 C 24,76.1791 24.1791,76 24.4,76 h 3.2 c 0.2209,0 0.4,0.1791 0.4,0.4 V 80 Z m 104,-4 h -3.2 c -0.221,0 -0.4,-0.1791 -0.4,-0.4 v -3.2 c 0,-0.2209 -0.179,-0.4 -0.4,-0.4 h -3.2 c -0.221,0 -0.4,-0.1791 -0.4,-0.4 v -3.2 c 0,-0.2209 0.179,-0.4 0.4,-0.4 h 3.2 c 0.221,0 0.4,-0.1791 0.4,-0.4 v -3.2 c 0,-0.2209 0.179,-0.4 0.4,-0.4 h 3.2 c 0.221,0 0.4,0.1791 0.4,0.4 v 11.2 c 0,0.2209 -0.179,0.4 -0.4,0.4 z m -44,0 H 84.4 C 84.1791,76 84,75.8209 84,75.6 V 72 h 4 v 3.6 c 0,0.2209 -0.1791,0.4 -0.4,0.4 z m -36,0 H 48.4 C 48.1791,76 48,75.8209 48,75.6 V 64.4 C 48,64.1791 48.1791,64 48.4,64 h 3.2 C 51.8209,64 52,63.8209 52,63.6 V 60 h 3.6 c 0.2209,0 0.4,0.1791 0.4,0.4 V 71.6 C 56,71.8209 55.8209,72 55.6,72 H 52.4 C 52.1791,72 52,72.1791 52,72.4 v 3.2 c 0,0.2209 -0.1791,0.4 -0.4,0.4 z m -8,0 H 40 V 72.4 C 40,72.1791 40.1791,72 40.4,72 h 3.2 c 0.2209,0 0.4,0.1791 0.4,0.4 v 3.2 c 0,0.2209 -0.1791,0.4 -0.4,0.4 z m -8,0 H 32.4 C 32.1791,76 32,75.8209 32,75.6 V 72.4 C 32,72.1791 32.1791,72 32.4,72 h 3.2 c 0.2209,0 0.4,0.1791 0.4,0.4 V 76 Z m -16,0 H 16.4 C 16.1791,76 16,75.8209 16,75.6 V 72.4 C 16,72.1791 16.1791,72 16.4,72 h 3.2 c 0.2209,0 0.4,0.1791 0.4,0.4 v 3.2 c 0,0.2209 -0.1791,0.4 -0.4,0.4 z m 24,-8 H 16.4 C 16.1791,68 16,67.8209 16,67.6 V 64.4 C 16,64.1791 16.1791,64 16.4,64 h 3.2 C 19.8209,64 20,63.8209 20,63.6 V 60 h 4 v 3.6 c 0,0.2209 0.1791,0.4 0.4,0.4 h 3.2 C 27.8209,64 28,63.8209 28,63.6 V 60.4 C 28,60.1791 27.8209,60 27.6,60 H 24 V 56.4 C 24,56.1791 24.1791,56 24.4,56 h 3.2 C 27.8209,56 28,55.8209 28,55.6 V 52 h 3.6 c 0.2209,0 0.4,0.1791 0.4,0.4 v 11.2 c 0,0.2209 0.1791,0.4 0.4,0.4 h 11.2 c 0.2209,0 0.4,0.1791 0.4,0.4 v 3.2 c 0,0.2209 -0.1791,0.4 -0.4,0.4 z m 60,-4 H 100 v -3.6 c 0,-0.2209 0.179,-0.4 0.4,-0.4 h 3.6 v 4 z m 28,-4 h -3.2 C 128.179,60 128,59.8209 128,59.6 V 56.4 C 128,56.1791 127.821,56 127.6,56 H 124 v -7.6 c 0,-0.2209 0.179,-0.4 0.4,-0.4 h 7.2 c 0.221,0 0.4,0.1791 0.4,0.4 v 11.2 c 0,0.2209 -0.179,0.4 -0.4,0.4 z m -60,0 H 68.4 C 68.1791,60 68,59.8209 68,59.6 V 56.4 C 68,56.1791 68.1791,56 68.4,56 h 3.2 c 0.2209,0 0.4,0.1791 0.4,0.4 V 60 Z m -8,0 H 60.4 C 60.1791,60 60,59.8209 60,59.6 V 56 h 3.6 c 0.2209,0 0.4,0.1791 0.4,0.4 v 3.2 c 0,0.2209 -0.1791,0.4 -0.4,0.4 z m -12,0 H 48.4 C 48.1791,60 48,59.8209 48,59.6 V 32.4 C 48,32.1791 48.1791,32 48.4,32 h 7.2 C 55.8209,32 56,31.8209 56,31.6 V 24.4 C 56,24.1791 55.8209,24 55.6,24 H 48.4 C 48.1791,24 48,23.8209 48,23.6 V 16.4 C 48,16.1791 48.1791,16 48.4,16 h 3.2 c 0.2209,0 0.4,0.1791 0.4,0.4 v 3.2 c 0,0.2209 0.1791,0.4 0.4,0.4 H 60 v 3.6 c 0,0.2209 0.1791,0.4 0.4,0.4 h 3.2 C 63.8209,24 64,23.8209 64,23.6 V 20.4 C 64,20.1791 63.8209,20 63.6,20 H 60 V 16.4 C 60,16.1791 60.1791,16 60.4,16 h 7.2 c 0.2209,0 0.4,0.1791 0.4,0.4 v 7.2 c 0,0.2209 0.1791,0.4 0.4,0.4 h 3.2 c 0.2209,0 0.4,0.1791 0.4,0.4 v 3.2 c 0,0.2209 0.1791,0.4 0.4,0.4 H 76 v 3.6 C 76,31.8209 75.8209,32 75.6,32 H 72.4 C 72.1791,32 72,32.1791 72,32.4 V 40 H 68 V 28.4 C 68,28.1791 67.8209,28 67.6,28 H 60.4 C 60.1791,28 60,28.1791 60,28.4 v 3.2 c 0,0.2209 0.1791,0.4 0.4,0.4 h 3.2 c 0.2209,0 0.4,0.1791 0.4,0.4 V 40 H 60 V 36.4 C 60,36.1791 59.8209,36 59.6,36 H 52.4 C 52.1791,36 52,36.1791 52,36.4 v 11.2 c 0,0.2209 0.1791,0.4 0.4,0.4 h 3.2 C 55.8209,48 56,47.8209 56,47.6 V 40.4 C 56,40.1791 56.1791,40 56.4,40 H 60 v 3.6 c 0,0.2209 0.1791,0.4 0.4,0.4 h 3.2 C 63.8209,44 64,43.8209 64,43.6 V 40 h 4 v 7.6 C 68,47.8209 67.8209,48 67.6,48 H 60.4 C 60.1791,48 60,48.1791 60,48.4 V 56 H 52.4 C 52.1791,56 52,56.1791 52,56.4 V 60 Z m -8,0 H 40.4 C 40.1791,60 40,59.8209 40,59.6 V 56 h 3.6 c 0.2209,0 0.4,0.1791 0.4,0.4 v 3.2 c 0,0.2209 -0.1791,0.4 -0.4,0.4 z m -24,0 H 16.4 C 16.1791,60 16,59.8209 16,59.6 V 56.4 C 16,56.1791 16.1791,56 16.4,56 h 3.2 c 0.2209,0 0.4,0.1791 0.4,0.4 V 60 Z m 20,-4 H 36.4 C 36.1791,56 36,55.8209 36,55.6 V 48.4 C 36,48.1791 36.1791,48 36.4,48 h 7.2 c 0.2209,0 0.4,0.1791 0.4,0.4 v 3.2 C 44,51.8209 43.8209,52 43.6,52 H 40.4 C 40.1791,52 40,52.1791 40,52.4 V 56 Z m -12,-4 H 16.4 C 16.1791,52 16,51.8209 16,51.6 V 48.4 C 16,48.1791 16.1791,48 16.4,48 h 11.2 c 0.2209,0 0.4,0.1791 0.4,0.4 V 52 Z m 104,-8 H 104.4 C 104.179,44 104,43.8209 104,43.6 V 16.4 c 0,-0.2209 0.179,-0.4 0.4,-0.4 h 27.2 c 0.221,0 0.4,0.1791 0.4,0.4 v 27.2 c 0,0.2209 -0.179,0.4 -0.4,0.4 z m -32,0 H 96.4 C 96.1791,44 96,43.8209 96,43.6 V 36.4 C 96,36.1791 96.1791,36 96.4,36 h 3.2 c 0.2209,0 0.4,0.1791 0.4,0.4 v 7.2 c 0,0.2209 -0.1791,0.4 -0.4,0.4 z m -8,0 H 88.4 C 88.1791,44 88,43.8209 88,43.6 V 40.4 C 88,40.1791 87.8209,40 87.6,40 H 84.4 C 84.1791,40 84,40.1791 84,40.4 v 3.2 C 84,43.8209 83.8209,44 83.6,44 H 80 V 36.4 C 80,36.1791 80.1791,36 80.4,36 h 3.2 C 83.8209,36 84,35.8209 84,35.6 V 32.4 C 84,32.1791 83.8209,32 83.6,32 H 80.4 C 80.1791,32 80,31.8209 80,31.6 V 28.4 C 80,28.1791 79.8209,28 79.6,28 H 76 V 24.4 C 76,24.1791 76.1791,24 76.4,24 h 11.2 c 0.2209,0 0.4,0.1791 0.4,0.4 v 3.2 c 0,0.2209 0.1791,0.4 0.4,0.4 h 3.2 c 0.2209,0 0.4,0.1791 0.4,0.4 v 15.2 c 0,0.2209 -0.1791,0.4 -0.4,0.4 z m -16,0 H 72.4 C 72.1791,44 72,43.8209 72,43.6 V 40 h 3.6 c 0.2209,0 0.4,0.1791 0.4,0.4 V 44 Z m -32,0 H 16.4 C 16.1791,44 16,43.8209 16,43.6 V 16.4 C 16,16.1791 16.1791,16 16.4,16 h 27.2 c 0.2209,0 0.4,0.1791 0.4,0.4 V 43.6 C 44,43.8209 43.8209,44 43.6,44 Z M 128,39.6 V 20.4 c 0,-0.2209 -0.179,-0.4 -0.4,-0.4 h -19.2 c -0.221,0 -0.4,0.1791 -0.4,0.4 v 19.2 c 0,0.2209 0.179,0.4 0.4,0.4 h 19.2 c 0.221,0 0.4,-0.1791 0.4,-0.4 z m -88,0 V 20.4 C 40,20.1791 39.8209,20 39.6,20 H 20.4 C 20.1791,20 20,20.1791 20,20.4 v 19.2 c 0,0.2209 0.1791,0.4 0.4,0.4 H 39.6 C 39.8209,40 40,39.8209 40,39.6 Z M 123.6,36 H 112.4 C 112.179,36 112,35.8209 112,35.6 V 24.4 c 0,-0.2209 0.179,-0.4 0.4,-0.4 h 11.2 c 0.221,0 0.4,0.1791 0.4,0.4 v 11.2 c 0,0.2209 -0.179,0.4 -0.4,0.4 z m -88,0 H 24.4 C 24.1791,36 24,35.8209 24,35.6 V 24.4 C 24,24.1791 24.1791,24 24.4,24 h 11.2 c 0.2209,0 0.4,0.1791 0.4,0.4 v 11.2 c 0,0.2209 -0.1791,0.4 -0.4,0.4 z m 64,-4 H 96.4 C 96.1791,32 96,31.8209 96,31.6 V 24.4 C 96,24.1791 96.1791,24 96.4,24 h 3.2 c 0.2209,0 0.4,0.1791 0.4,0.4 v 7.2 c 0,0.2209 -0.1791,0.4 -0.4,0.4 z M 75.6,20 H 72.4 C 72.1791,20 72,19.8209 72,19.6 V 16.4 C 72,16.1791 72.1791,16 72.4,16 h 3.2 c 0.2209,0 0.4,0.1791 0.4,0.4 v 3.2 c 0,0.2209 -0.1791,0.4 -0.4,0.4 z"
         id="path7" />
    </g>
  </g>
</svg>
